<svg xmlns="http://www.w3.org/2000/svg" xmlns:xlink="http://www.w3.org/1999/xlink" width="500" zoomAndPan="magnify" viewBox="0 0 375 374.999991" height="500" preserveAspectRatio="xMidYMid meet" version="1.0"><defs><g><g id="id1"/></g></defs><rect x="-37.5" width="450" fill="rgb(100%, 100%, 100%)" y="-37.499999" height="449.999989" fill-opacity="1"/><rect x="-37.5" width="450" fill="rgb(28.239441%, 73.329163%, 47.059631%)" y="-37.499999" height="449.999989" fill-opacity="1"/><rect x="-37.5" width="450" fill="rgb(100%, 100%, 100%)" y="-37.499999" height="449.999989" fill-opacity="1"/><rect x="-37.5" width="450" fill="rgb(28.239441%, 73.329163%, 47.059631%)" y="-37.499999" height="449.999989" fill-opacity="1"/><g fill="rgb(100%, 100%, 100%)" fill-opacity="1"><g transform="translate(35.36133, 270.374982)"><g><path d="M 69.453125 -166.09375 L 2.71875 -166.09375 L 2.71875 -162.140625 L 23.96875 -162.140625 L 79.59375 2.46875 L 84.03125 2.46875 L 136.9375 -162.140625 L 154.734375 -162.140625 L 154.734375 -166.09375 L 110.484375 -166.09375 L 110.484375 -162.140625 L 131.75 -162.140625 L 90.71875 -34.359375 L 47.203125 -162.140625 L 69.453125 -162.140625 Z M 69.453125 -166.09375 "/></g></g></g><g fill="rgb(100%, 100%, 100%)" fill-opacity="1"><g transform="translate(191.57252, 270.374982)"><g><path d="M 137.1875 -45.734375 C 135.863281 -39.460938 134.457031 -33.773438 132.96875 -28.671875 C 131.488281 -23.566406 129.515625 -19.160156 127.046875 -15.453125 C 124.578125 -11.742188 121.445312 -8.898438 117.65625 -6.921875 C 113.863281 -4.941406 109.082031 -3.953125 103.3125 -3.953125 L 52.640625 -3.953125 L 52.640625 -162.140625 L 76.125 -162.140625 L 76.125 -166.09375 L 7.421875 -166.09375 L 7.421875 -162.140625 L 28.671875 -162.140625 L 28.671875 -3.953125 L 7.421875 -3.953125 L 7.421875 0 L 134.703125 0 C 139.484375 0 141.875 -2.632812 141.875 -7.90625 L 141.875 -44.984375 C 141.875 -48.941406 141.21875 -50.921875 139.90625 -50.921875 C 138.75 -50.921875 137.84375 -49.191406 137.1875 -45.734375 Z M 137.1875 -45.734375 "/></g></g></g></svg>